<?xml version="1.0" standalone="no"?>
<!DOCTYPE svg PUBLIC "-//W3C//DTD SVG 20010904//EN"
 "http://www.w3.org/TR/2001/REC-SVG-20010904/DTD/svg10.dtd">
<svg version="1.0" xmlns="http://www.w3.org/2000/svg"
 width="1200.000000pt" height="1200.000000pt" viewBox="0 0 1200.000000 1200.000000"
 preserveAspectRatio="xMidYMid meet">
<metadata>
Created by potrace 1.11, written by Peter Selinger 2001-2013
</metadata>
<g transform="translate(0.000000,1200.000000) scale(0.100000,-0.100000)"
fill="#000000" stroke="none">
<path d="M5082 11550 c-18 -4 -34 -9 -36 -11 -1 -2 -11 -24 -21 -47 -10 -24
-33 -56 -51 -70 -25 -21 -42 -55 -82 -162 -27 -74 -57 -160 -67 -190 -9 -30
-27 -71 -40 -90 -13 -19 -26 -56 -29 -82 -4 -25 -13 -51 -20 -57 -7 -6 -25
-41 -40 -78 -15 -38 -47 -108 -71 -158 -24 -49 -46 -104 -50 -122 -3 -17 -12
-36 -19 -42 -8 -6 -26 -39 -41 -74 -58 -131 -89 -193 -116 -235 -16 -24 -29
-49 -29 -56 0 -7 -9 -25 -20 -39 -11 -14 -20 -29 -20 -34 0 -5 -20 -41 -44
-79 -25 -38 -48 -82 -52 -99 -4 -16 -17 -43 -29 -60 -13 -16 -37 -57 -54 -90
-17 -33 -58 -105 -91 -160 -67 -112 -140 -257 -163 -325 -18 -53 -93 -187
-136 -246 -17 -23 -31 -48 -31 -56 0 -8 -8 -26 -19 -39 -20 -27 -71 -130 -71
-146 0 -6 -8 -21 -19 -34 -10 -13 -35 -64 -56 -114 -21 -49 -44 -97 -51 -105
-7 -8 -15 -32 -19 -52 l-7 -37 57 -26 c82 -36 118 -44 235 -50 58 -4 123 -12
145 -20 70 -23 114 -28 144 -15 25 10 29 18 34 63 3 29 19 84 36 122 17 39 31
80 31 91 0 12 7 27 15 34 35 29 125 209 125 251 0 15 6 43 14 61 8 18 25 58
38 88 12 30 40 88 61 128 20 39 40 93 43 120 11 82 23 92 108 92 41 0 87 6
103 13 23 9 70 10 204 3 129 -7 214 -6 329 4 85 8 173 14 195 14 39 1 39 1 51
-49 7 -27 19 -67 28 -87 9 -21 16 -45 16 -55 0 -9 11 -33 24 -52 13 -20 31
-61 39 -91 23 -82 40 -144 44 -155 1 -5 8 -33 15 -62 7 -28 16 -55 21 -59 4
-4 7 -19 7 -34 0 -14 7 -35 15 -46 8 -10 15 -28 15 -39 0 -11 9 -45 19 -75 10
-30 16 -71 14 -90 -4 -29 1 -41 29 -72 l33 -37 55 19 c30 11 63 17 72 14 10
-3 25 -1 35 4 25 13 287 21 308 9 12 -6 27 -4 48 6 83 39 84 39 106 28 17 -10
28 -7 60 14 l40 25 -19 54 c-10 30 -24 65 -31 78 -16 30 -105 276 -128 353
-10 33 -41 112 -70 175 -29 63 -58 126 -64 140 -6 14 -19 37 -29 52 -10 15
-34 71 -54 125 -19 54 -50 123 -69 154 -62 101 -135 258 -159 344 -10 33 -34
84 -54 114 -21 29 -40 58 -44 65 -16 26 -78 188 -102 268 -14 47 -52 133 -84
190 -81 147 -156 315 -198 447 -52 165 -157 389 -213 457 -5 6 -20 29 -35 52
-14 23 -27 42 -29 41 -1 -1 -17 -5 -35 -9z m35 -242 c12 -13 30 -41 41 -63 50
-98 82 -169 82 -181 0 -17 76 -248 95 -289 8 -16 25 -56 39 -88 14 -32 37 -72
51 -89 14 -16 25 -35 25 -42 0 -7 14 -34 31 -62 18 -27 39 -69 47 -94 8 -25
21 -52 28 -61 8 -8 14 -29 14 -46 0 -39 41 -138 137 -333 43 -85 82 -168 89
-185 39 -99 57 -142 65 -155 5 -8 13 -24 18 -36 5 -11 23 -42 39 -68 17 -27
34 -62 38 -80 4 -17 36 -94 71 -171 95 -204 173 -386 173 -404 1 -9 17 -61 36
-116 19 -55 39 -117 43 -138 5 -21 14 -44 20 -50 6 -6 11 -21 11 -33 0 -16 -6
-21 -27 -21 -62 -1 -409 -24 -420 -28 -17 -6 -26 12 -34 65 -9 54 -31 133 -40
140 -3 3 -9 19 -12 35 -7 42 -66 244 -81 280 -7 17 -18 46 -25 65 -7 19 -26
69 -43 110 -16 41 -34 97 -39 124 -14 83 -39 144 -69 169 -27 23 -30 24 -91
11 -35 -8 -74 -14 -87 -14 -12 0 -38 -9 -58 -19 -33 -18 -58 -19 -427 -16
-410 3 -422 2 -457 -41 -8 -9 -29 -69 -46 -133 -18 -64 -51 -159 -74 -211 -23
-52 -46 -113 -50 -136 -5 -22 -16 -56 -24 -75 -8 -19 -22 -60 -31 -91 -8 -31
-26 -70 -40 -86 -13 -16 -27 -47 -31 -70 -3 -22 -13 -43 -20 -46 -17 -6 -54
-88 -54 -117 0 -10 -4 -19 -8 -19 -5 0 -14 -11 -20 -25 -10 -21 -15 -23 -39
-15 -15 5 -84 17 -153 25 -69 9 -129 20 -135 26 -5 5 -18 9 -28 9 -17 0 -18 5
-13 35 7 37 50 130 72 155 7 8 37 62 67 120 30 58 83 150 119 205 77 119 138
244 138 281 0 9 7 22 15 30 8 9 15 24 15 34 0 10 4 22 10 25 5 3 28 44 50 90
23 46 66 121 96 167 31 46 62 97 71 113 8 17 26 41 38 55 13 14 26 35 30 48 6
19 61 138 99 212 7 14 24 48 38 75 13 28 50 96 81 152 31 56 57 113 57 127 0
14 7 29 15 33 30 17 285 637 346 843 16 51 63 110 88 110 10 0 27 -10 38 -22z"/>
<path d="M5075 10807 c-40 -29 -54 -48 -55 -72 0 -11 -9 -35 -20 -53 -11 -18
-20 -41 -20 -51 0 -10 -7 -24 -15 -31 -8 -7 -15 -21 -15 -30 0 -10 -16 -49
-35 -85 -19 -37 -37 -82 -41 -100 -3 -19 -17 -48 -30 -66 -13 -18 -24 -39 -24
-45 0 -7 -29 -66 -65 -132 -37 -67 -65 -131 -65 -148 -1 -16 -12 -47 -25 -69
-35 -59 -62 -117 -68 -145 -3 -14 -18 -60 -35 -102 -29 -75 -29 -77 -12 -106
16 -26 25 -30 86 -37 92 -11 411 -7 434 5 10 6 43 10 72 10 30 0 61 7 72 15
16 12 22 12 46 0 15 -8 63 -15 112 -16 94 -3 121 9 171 73 l25 31 -25 81 c-14
44 -31 95 -39 111 -7 17 -18 52 -24 78 -6 27 -17 65 -25 84 -8 20 -15 51 -15
69 0 19 -4 34 -9 34 -5 0 -12 15 -16 33 -4 17 -13 41 -20 52 -6 11 -22 54 -35
95 -24 80 -80 248 -124 369 -15 41 -36 86 -47 99 -10 14 -19 31 -19 39 0 12
-39 34 -58 33 -4 0 -20 -11 -37 -23z m97 -349 c15 -46 39 -128 54 -183 27
-101 45 -143 75 -180 10 -12 22 -58 30 -110 7 -52 22 -109 35 -135 13 -25 26
-71 30 -102 8 -67 15 -64 -146 -73 -58 -3 -132 -9 -165 -14 -68 -11 -329 -14
-362 -5 -19 5 -21 11 -16 38 3 17 14 49 24 72 10 22 19 47 19 55 0 8 11 30 24
48 14 19 28 48 32 65 7 33 14 49 121 256 38 74 75 155 82 180 7 25 19 57 27
71 7 14 11 29 7 32 -3 3 6 20 20 37 14 16 29 39 32 51 l7 21 22 -21 c12 -11
34 -58 48 -103z"/>
<path d="M1555 11400 c-22 -5 -83 -14 -136 -19 -61 -7 -125 -21 -178 -41 -45
-16 -96 -30 -112 -30 -16 0 -29 -4 -29 -9 0 -5 -15 -12 -32 -16 -34 -7 -191
-69 -218 -86 -8 -5 -26 -15 -40 -21 -14 -7 -27 -15 -30 -18 -3 -3 -25 -18 -50
-34 -25 -16 -55 -39 -67 -50 -11 -12 -27 -26 -35 -32 -13 -10 -96 -106 -108
-123 -3 -5 -19 -17 -35 -27 -52 -32 -121 -116 -166 -199 -23 -44 -53 -93 -65
-110 -31 -42 -74 -131 -74 -152 0 -10 -6 -27 -13 -38 -7 -11 -21 -56 -31 -100
-10 -44 -23 -91 -28 -105 -6 -14 -14 -70 -19 -125 -13 -151 -24 -218 -38 -244
-11 -19 -10 -39 4 -120 10 -53 26 -119 37 -148 10 -28 18 -66 17 -85 -1 -18 6
-46 15 -63 9 -16 16 -42 16 -56 0 -15 6 -31 13 -37 7 -6 19 -34 27 -62 7 -27
17 -50 21 -50 5 0 17 -19 27 -42 33 -73 121 -187 253 -327 20 -21 39 -46 43
-57 6 -18 235 -174 256 -174 5 0 10 -6 10 -14 0 -14 32 -30 83 -42 15 -3 30
-10 33 -15 3 -5 18 -9 34 -9 19 0 31 -6 35 -18 7 -23 46 -42 84 -42 16 0 40
-9 54 -20 14 -11 40 -20 60 -20 21 0 41 -7 52 -20 10 -11 25 -20 34 -20 9 0
29 -7 45 -15 15 -8 41 -15 57 -15 15 0 30 -4 33 -8 3 -5 19 -7 36 -4 16 2 36
0 43 -6 35 -28 544 -39 631 -13 17 5 58 12 91 15 63 5 122 25 165 56 14 9 48
20 75 24 28 4 86 26 129 48 74 38 82 39 118 29 27 -8 49 -9 76 -2 51 14 62 45
45 126 -7 33 -12 84 -13 113 0 36 -8 68 -25 102 -14 27 -25 58 -25 70 0 11 -4
20 -9 20 -5 0 -12 14 -16 30 -4 17 -10 30 -15 30 -24 0 -159 -32 -185 -44 -16
-8 -57 -17 -90 -20 -95 -10 -206 -35 -250 -57 -22 -11 -56 -19 -75 -19 -19 0
-84 -6 -145 -14 -60 -9 -164 -15 -230 -14 -66 0 -129 0 -140 0 -72 -4 -213 0
-284 9 -64 7 -107 20 -173 51 -48 22 -88 44 -88 48 0 4 -26 24 -57 44 -128 82
-174 127 -293 286 -30 41 -67 88 -82 103 -18 19 -28 44 -33 80 -4 29 -18 81
-32 117 -24 63 -24 71 -19 245 6 216 17 320 34 337 6 6 12 19 12 28 0 16 63
141 120 236 37 63 98 127 141 149 14 8 32 28 39 45 7 17 20 30 30 30 9 0 25
10 36 21 10 12 33 28 49 36 17 7 53 32 80 53 28 22 56 40 63 40 8 0 33 16 56
35 23 19 59 42 80 50 20 9 41 26 47 38 7 15 26 28 52 36 60 18 205 43 252 43
240 1 389 -16 435 -51 16 -11 36 -21 45 -21 35 0 258 -127 283 -162 7 -10 39
-38 70 -63 31 -25 71 -57 87 -71 92 -78 118 -94 150 -94 41 0 88 43 105 95 6
19 15 35 19 35 10 0 81 103 81 119 0 6 7 14 15 17 8 3 26 30 40 59 25 51 26
53 9 88 -12 25 -26 38 -45 42 -15 4 -30 12 -32 20 -3 7 -22 18 -41 25 -20 6
-36 16 -36 21 0 5 -6 9 -14 9 -8 0 -44 27 -80 60 -37 33 -71 60 -77 60 -6 0
-23 13 -38 28 -32 32 -183 122 -205 122 -8 0 -35 9 -61 20 -26 11 -63 20 -82
20 -20 0 -52 4 -72 9 -20 6 -65 17 -101 27 -56 14 -202 21 -345 15 -11 0 -45
1 -75 3 -30 3 -73 0 -95 -4z m19 -115 c9 -13 20 -14 71 -4 33 6 65 11 70 10 6
-1 75 -3 154 -5 84 -3 148 -9 154 -15 6 -6 21 -11 34 -11 12 0 45 -9 73 -20
28 -11 71 -20 95 -20 65 0 147 -20 170 -41 25 -22 111 -69 129 -69 7 0 18 -11
24 -24 6 -13 19 -27 29 -31 10 -3 32 -25 48 -48 17 -23 53 -57 80 -74 98 -64
96 -62 84 -86 -30 -57 -92 -146 -107 -152 -8 -3 -32 6 -55 22 -22 15 -51 34
-64 41 -13 8 -37 32 -53 54 -16 22 -55 56 -87 75 -166 101 -209 124 -251 134
-26 5 -53 15 -60 22 -29 24 -90 39 -192 48 -152 14 -341 17 -370 6 -14 -5 -41
-10 -60 -12 -71 -6 -166 -27 -205 -45 -164 -76 -195 -93 -243 -139 -28 -28
-63 -53 -77 -57 -15 -4 -28 -16 -31 -30 -4 -14 -19 -31 -35 -39 -66 -34 -116
-76 -143 -119 -16 -25 -35 -46 -42 -46 -8 0 -14 -4 -14 -10 0 -5 -20 -18 -44
-29 -43 -19 -76 -60 -76 -95 0 -8 -10 -27 -23 -43 -34 -41 -137 -262 -142
-303 -9 -90 -24 -178 -34 -203 -14 -35 -7 -278 9 -306 5 -11 10 -35 10 -53 0
-19 7 -43 15 -54 8 -10 15 -35 15 -54 1 -60 26 -148 54 -188 15 -20 40 -56 57
-79 17 -24 34 -43 39 -43 5 0 25 -25 45 -55 19 -31 51 -65 70 -76 19 -12 44
-38 56 -58 15 -28 40 -48 92 -76 40 -21 78 -47 85 -57 8 -10 46 -35 85 -54 40
-20 79 -42 87 -49 8 -7 40 -15 70 -18 188 -20 230 -26 240 -32 6 -4 19 -4 28
0 15 7 180 7 312 1 25 -1 50 0 55 3 6 3 30 7 55 7 84 2 263 24 275 34 6 5 53
14 105 21 65 8 109 20 137 36 35 19 47 22 64 13 15 -9 37 -7 90 7 80 20 96 15
115 -38 32 -87 10 -124 -92 -157 -33 -11 -69 -24 -80 -30 -105 -56 -301 -113
-452 -133 -131 -16 -498 -3 -577 22 -33 10 -73 19 -88 19 -16 0 -40 9 -54 20
-14 11 -32 20 -40 20 -17 0 -112 39 -133 55 -8 6 -33 17 -55 24 -22 7 -56 23
-75 36 -19 13 -46 26 -60 30 -14 4 -34 15 -45 25 -11 10 -38 26 -60 37 -60 29
-85 44 -139 86 -27 20 -52 37 -56 37 -25 0 -301 381 -331 457 -6 16 -15 37
-20 48 -49 117 -73 207 -76 285 -12 257 4 426 57 613 22 76 40 151 40 166 0
17 11 39 30 57 16 16 30 37 30 46 0 9 3 18 8 20 8 4 52 65 52 73 0 19 101 136
230 265 111 112 167 160 226 194 43 25 85 46 92 46 8 0 26 6 40 14 15 7 45 19
67 25 22 7 56 18 75 26 60 23 204 65 224 65 32 0 156 33 156 42 0 13 22 9 34
-7z"/>
<path d="M8025 11346 c-22 -7 -53 -18 -68 -24 -16 -7 -31 -12 -34 -12 -3 0
-35 -20 -72 -44 -107 -72 -143 -120 -249 -331 -27 -53 -36 -85 -39 -135 -2
-36 -5 -71 -8 -78 -3 -8 7 -59 21 -114 17 -69 23 -110 18 -132 -4 -17 -7 -35
-5 -41 2 -5 7 -37 13 -70 6 -33 17 -67 25 -76 8 -9 23 -41 34 -70 11 -29 29
-63 39 -76 10 -13 24 -41 31 -61 6 -20 25 -52 40 -70 16 -18 29 -38 29 -45 0
-15 143 -156 220 -218 76 -60 166 -160 174 -193 4 -15 17 -31 31 -36 14 -5 31
-27 43 -53 12 -27 35 -55 61 -73 22 -16 41 -34 41 -39 0 -6 14 -27 30 -47 44
-54 57 -125 40 -219 -33 -185 -110 -257 -311 -291 -94 -16 -267 10 -314 48
-16 14 -54 43 -83 65 -49 37 -109 108 -130 154 -6 11 -15 40 -22 64 -24 89
-107 132 -144 76 -9 -14 -21 -25 -27 -25 -6 0 -23 -8 -37 -19 -15 -10 -38 -22
-52 -26 -14 -4 -34 -15 -45 -25 -11 -9 -41 -25 -67 -35 -88 -33 -97 -83 -33
-190 19 -31 35 -69 35 -82 0 -14 18 -52 40 -85 22 -33 40 -62 40 -65 0 -13 54
-73 71 -78 11 -4 26 -20 35 -36 12 -23 21 -29 42 -27 21 2 28 -2 30 -17 2 -13
20 -29 50 -44 96 -47 108 -54 144 -82 21 -17 59 -33 88 -39 28 -5 60 -14 71
-20 37 -20 174 -41 304 -46 72 -3 159 -7 195 -9 82 -6 73 -6 155 4 112 14 165
45 288 170 59 61 107 117 107 125 0 9 5 16 10 16 6 0 10 8 10 18 0 9 9 23 20
30 23 14 38 47 44 96 2 18 9 42 15 52 45 83 42 404 -5 516 -13 32 -24 67 -24
78 0 23 -89 212 -105 222 -6 4 -33 34 -59 67 -27 34 -53 61 -58 61 -5 0 -21
14 -36 32 -33 39 -219 177 -249 184 -12 3 -27 19 -33 35 -7 16 -36 47 -64 69
-66 51 -110 89 -138 120 -13 14 -47 48 -75 77 -29 28 -53 55 -53 60 0 5 -20
31 -44 57 -54 57 -86 143 -86 230 0 85 35 204 71 241 16 17 29 36 29 42 0 6
21 24 48 39 46 28 50 29 182 26 124 -2 137 -4 172 -27 21 -14 42 -25 47 -25 5
0 17 -12 26 -27 10 -14 30 -40 46 -57 82 -91 119 -146 119 -178 0 -13 4 -28 8
-34 11 -19 82 -35 103 -24 21 12 59 71 59 94 0 9 6 19 14 22 8 3 34 35 57 70
23 35 58 81 78 102 55 59 87 125 76 158 -6 15 -17 31 -25 35 -47 25 -150 69
-162 69 -8 0 -29 16 -48 35 -19 19 -39 35 -45 35 -6 0 -42 20 -79 45 -38 25
-78 45 -89 45 -20 0 -79 24 -147 59 -23 13 -57 19 -100 19 -36 0 -78 5 -93 11
-37 14 -211 12 -262 -3z m279 -152 c50 -8 110 -19 134 -25 23 -5 56 -9 72 -9
17 0 30 -5 30 -10 0 -6 20 -15 45 -22 35 -9 45 -17 45 -33 1 -32 45 -75 77
-75 15 0 60 -13 98 -28 83 -34 92 -54 46 -104 -17 -18 -40 -45 -52 -60 -29
-40 -53 -35 -89 17 -17 25 -37 45 -45 45 -8 0 -15 5 -15 10 0 37 -67 97 -140
124 -8 3 -22 10 -30 14 -71 40 -82 42 -220 42 -126 0 -142 -2 -191 -25 -30
-14 -69 -37 -88 -50 -42 -31 -121 -132 -121 -155 0 -10 -7 -23 -15 -30 -9 -8
-13 -21 -9 -36 5 -18 2 -24 -10 -24 -17 0 -19 -6 -37 -132 -11 -77 -10 -95 5
-152 10 -36 29 -77 42 -91 13 -14 24 -33 24 -41 0 -8 16 -24 35 -35 19 -12 35
-27 35 -35 0 -52 107 -194 147 -194 6 0 28 -20 49 -45 20 -25 42 -45 48 -45 7
0 22 -13 34 -30 12 -16 39 -39 60 -51 20 -12 53 -41 72 -65 19 -24 42 -46 52
-49 9 -3 31 -19 50 -35 18 -16 39 -30 45 -30 12 0 80 -64 118 -110 11 -14 38
-40 60 -59 22 -19 53 -55 69 -80 16 -25 37 -58 47 -72 10 -15 21 -40 25 -55 4
-16 18 -51 32 -79 14 -27 26 -66 28 -85 2 -19 5 -39 5 -45 1 -5 -2 -77 -7
-159 -6 -128 -10 -155 -31 -193 -12 -24 -23 -49 -23 -54 0 -57 -155 -236 -254
-294 -53 -31 -174 -67 -190 -57 -6 3 -70 7 -142 8 -82 1 -151 8 -185 17 -30 9
-87 20 -128 26 -41 5 -77 14 -80 19 -3 5 -25 13 -48 17 -23 3 -53 15 -65 24
-13 10 -44 28 -70 40 -25 12 -49 29 -52 37 -3 8 -10 13 -14 10 -11 -6 -121 86
-162 135 -32 40 -100 186 -100 217 0 10 8 26 18 35 16 15 113 57 132 57 4 0
16 -20 25 -44 10 -26 41 -67 76 -102 32 -32 59 -62 59 -67 0 -12 20 -29 58
-50 18 -10 44 -29 58 -42 37 -35 112 -60 237 -80 84 -14 114 -15 133 -6 14 6
40 11 58 11 54 0 138 30 168 61 16 16 35 29 42 29 16 0 94 73 129 122 15 20
27 47 27 60 0 13 6 32 13 43 22 32 47 137 47 193 0 104 -52 242 -119 312 -22
24 -41 46 -41 49 0 4 -10 11 -22 16 -11 6 -28 24 -37 40 -9 17 -30 44 -46 61
-40 42 -107 120 -117 137 -4 8 -77 78 -163 157 -99 91 -158 152 -161 169 -4
14 -12 33 -19 41 -16 20 -67 121 -94 188 -28 67 -41 127 -51 227 -4 44 -13
111 -19 150 -11 68 -11 71 21 150 33 81 109 205 146 238 38 35 135 84 202 103
62 17 118 17 224 -2z"/>
<path d="M10705 11346 c-22 -7 -53 -18 -68 -24 -16 -7 -31 -12 -34 -12 -3 0
-35 -20 -72 -44 -107 -72 -143 -120 -249 -331 -27 -53 -36 -85 -39 -135 -2
-36 -5 -71 -8 -78 -3 -8 7 -59 21 -114 17 -69 23 -110 18 -132 -4 -17 -7 -35
-5 -41 2 -5 7 -37 13 -70 6 -33 17 -67 25 -76 8 -9 23 -41 34 -70 11 -29 29
-63 39 -76 10 -13 24 -41 31 -61 6 -20 25 -52 40 -70 16 -18 29 -38 29 -45 0
-15 143 -156 220 -218 76 -60 166 -160 174 -193 4 -15 17 -31 31 -36 14 -5 31
-27 43 -53 12 -27 35 -55 61 -73 22 -16 41 -34 41 -39 0 -6 14 -27 30 -47 44
-54 57 -125 40 -219 -33 -185 -110 -257 -311 -291 -94 -16 -267 10 -314 48
-16 14 -54 43 -83 65 -49 37 -109 108 -130 154 -6 11 -15 40 -22 64 -24 89
-107 132 -144 76 -9 -14 -21 -25 -27 -25 -6 0 -23 -8 -37 -19 -15 -10 -38 -22
-52 -26 -14 -4 -34 -15 -45 -25 -11 -9 -41 -25 -67 -35 -88 -33 -97 -83 -33
-190 19 -31 35 -69 35 -82 0 -14 18 -52 40 -85 22 -33 40 -62 40 -65 0 -13 54
-73 71 -78 11 -4 26 -20 35 -36 12 -23 21 -29 42 -27 21 2 28 -2 30 -17 2 -13
20 -29 50 -44 96 -47 108 -54 144 -82 21 -17 59 -33 88 -39 28 -5 60 -14 71
-20 37 -20 174 -41 304 -46 72 -3 159 -7 195 -9 82 -6 73 -6 155 4 112 14 165
45 288 170 59 61 107 117 107 125 0 9 5 16 10 16 6 0 10 8 10 18 0 9 9 23 20
30 23 14 38 47 44 96 2 18 9 42 15 52 45 83 42 404 -5 516 -13 32 -24 67 -24
78 0 23 -89 212 -105 222 -6 4 -33 34 -59 67 -27 34 -53 61 -58 61 -5 0 -21
14 -36 32 -33 39 -219 177 -249 184 -12 3 -27 19 -33 35 -7 16 -36 47 -64 69
-66 51 -110 89 -138 120 -13 14 -47 48 -75 77 -29 28 -53 55 -53 60 0 5 -20
31 -44 57 -54 57 -86 143 -86 230 0 85 35 204 71 241 16 17 29 36 29 42 0 6
21 24 48 39 46 28 50 29 182 26 124 -2 137 -4 172 -27 21 -14 42 -25 47 -25 5
0 17 -12 26 -27 10 -14 30 -40 46 -57 82 -91 119 -146 119 -178 0 -13 4 -28 8
-34 11 -19 82 -35 103 -24 21 12 59 71 59 94 0 9 6 19 14 22 8 3 34 35 57 70
23 35 58 81 78 102 55 59 87 125 76 158 -6 15 -17 31 -25 35 -47 25 -150 69
-162 69 -8 0 -29 16 -48 35 -19 19 -39 35 -45 35 -6 0 -42 20 -79 45 -38 25
-78 45 -89 45 -20 0 -79 24 -147 59 -23 13 -57 19 -100 19 -36 0 -78 5 -93 11
-37 14 -211 12 -262 -3z m279 -152 c50 -8 110 -19 134 -25 23 -5 56 -9 72 -9
17 0 30 -5 30 -10 0 -6 20 -15 45 -22 35 -9 45 -17 45 -33 1 -32 45 -75 77
-75 15 0 60 -13 98 -28 83 -34 92 -54 46 -104 -17 -18 -40 -45 -52 -60 -29
-40 -53 -35 -89 17 -17 25 -37 45 -45 45 -8 0 -15 5 -15 10 0 37 -67 97 -140
124 -8 3 -22 10 -30 14 -71 40 -82 42 -220 42 -126 0 -142 -2 -191 -25 -30
-14 -69 -37 -88 -50 -42 -31 -121 -132 -121 -155 0 -10 -7 -23 -15 -30 -9 -8
-13 -21 -9 -36 5 -18 2 -24 -10 -24 -17 0 -19 -6 -37 -132 -11 -77 -10 -95 5
-152 10 -36 29 -77 42 -91 13 -14 24 -33 24 -41 0 -8 16 -24 35 -35 19 -12 35
-27 35 -35 0 -52 107 -194 147 -194 6 0 28 -20 49 -45 20 -25 42 -45 48 -45 7
0 22 -13 34 -30 12 -16 39 -39 60 -51 20 -12 53 -41 72 -65 19 -24 42 -46 52
-49 9 -3 31 -19 50 -35 18 -16 39 -30 45 -30 12 0 80 -64 118 -110 11 -14 38
-40 60 -59 22 -19 53 -55 69 -80 16 -25 37 -58 47 -72 10 -15 21 -40 25 -55 4
-16 18 -51 32 -79 14 -27 26 -66 28 -85 2 -19 5 -39 5 -45 1 -5 -2 -77 -7
-159 -6 -128 -10 -155 -31 -193 -12 -24 -23 -49 -23 -54 0 -57 -155 -236 -254
-294 -53 -31 -174 -67 -190 -57 -6 3 -70 7 -142 8 -82 1 -151 8 -185 17 -30 9
-87 20 -128 26 -41 5 -77 14 -80 19 -3 5 -25 13 -48 17 -23 3 -53 15 -65 24
-13 10 -44 28 -70 40 -25 12 -49 29 -52 37 -3 8 -10 13 -14 10 -11 -6 -121 86
-162 135 -32 40 -100 186 -100 217 0 10 8 26 18 35 16 15 113 57 132 57 4 0
16 -20 25 -44 10 -26 41 -67 76 -102 32 -32 59 -62 59 -67 0 -12 20 -29 58
-50 18 -10 44 -29 58 -42 37 -35 112 -60 237 -80 84 -14 114 -15 133 -6 14 6
40 11 58 11 54 0 138 30 168 61 16 16 35 29 42 29 16 0 94 73 129 122 15 20
27 47 27 60 0 13 6 32 13 43 22 32 47 137 47 193 0 104 -52 242 -119 312 -22
24 -41 46 -41 49 0 4 -10 11 -22 16 -11 6 -28 24 -37 40 -9 17 -30 44 -46 61
-40 42 -107 120 -117 137 -4 8 -77 78 -163 157 -99 91 -158 152 -161 169 -4
14 -12 33 -19 41 -16 20 -67 121 -94 188 -28 67 -41 127 -51 227 -4 44 -13
111 -19 150 -11 68 -11 71 21 150 33 81 109 205 146 238 38 35 135 84 202 103
62 17 118 17 224 -2z"/>
<path d="M6753 7991 c-23 -4 -48 -12 -55 -19 -8 -6 -24 -9 -35 -6 -12 3 -54
-2 -95 -12 -40 -9 -92 -16 -115 -15 -33 1 -45 -3 -57 -21 -9 -12 -16 -30 -16
-39 0 -9 -7 -20 -15 -23 -9 -3 -23 -22 -31 -41 -13 -33 -13 -38 10 -84 14 -27
38 -62 53 -78 45 -47 133 -165 133 -178 0 -6 18 -26 39 -43 23 -19 44 -47 52
-69 6 -21 22 -50 35 -65 12 -15 37 -53 55 -85 18 -32 42 -71 54 -88 12 -16 28
-45 35 -63 7 -17 28 -45 46 -62 19 -16 34 -34 34 -39 0 -5 13 -38 30 -73 16
-34 30 -70 30 -79 0 -8 15 -33 33 -55 37 -45 44 -56 89 -142 18 -35 41 -70 50
-79 10 -9 18 -22 18 -29 0 -29 53 -131 84 -164 47 -49 66 -91 67 -147 1 -147
-13 -422 -23 -448 -8 -21 -13 -132 -14 -360 -2 -277 -7 -497 -17 -675 -3 -46
26 -60 121 -60 40 0 114 -5 165 -10 75 -9 107 -8 166 5 40 8 95 15 122 15 40
0 55 5 74 25 32 31 31 50 -1 111 -26 48 -27 52 -25 224 1 96 3 376 5 622 3
246 7 451 9 456 3 4 1 72 -4 151 -7 101 -7 147 0 154 6 6 11 19 11 29 0 10 16
35 35 57 19 21 35 41 35 43 0 3 32 39 71 79 65 68 123 156 188 284 14 28 29
52 33 53 5 2 8 8 8 12 0 5 11 20 25 34 14 14 25 32 25 41 0 8 4 15 9 15 5 0
16 19 26 42 9 23 30 57 46 75 16 19 29 42 29 52 0 10 41 58 91 107 52 52 97
105 106 126 8 21 22 40 31 43 10 3 25 22 35 43 18 39 59 103 105 163 15 20 46
61 70 92 50 67 55 105 17 135 -24 19 -36 20 -228 14 -111 -4 -240 -5 -286 -4
-52 1 -89 -2 -97 -9 -8 -6 -21 -36 -30 -66 -9 -30 -36 -84 -60 -120 -24 -36
-44 -70 -44 -76 0 -5 -19 -28 -42 -51 -86 -85 -140 -148 -150 -177 -5 -16 -14
-29 -19 -29 -5 0 -9 -6 -9 -14 0 -8 -16 -31 -35 -50 -19 -20 -35 -40 -36 -44
0 -10 -65 -100 -129 -179 -68 -84 -120 -158 -120 -171 0 -5 -9 -17 -20 -27
-19 -18 -22 -18 -38 -2 -30 30 -118 178 -177 297 -32 63 -63 122 -70 130 -7 8
-18 34 -24 56 -6 23 -18 48 -27 55 -8 7 -27 33 -40 58 -14 25 -36 64 -49 86
-14 22 -29 51 -35 65 -6 13 -30 45 -53 72 -68 76 -85 99 -132 173 -55 86 -63
90 -152 76z m47 -197 c25 -31 60 -72 78 -91 17 -19 32 -39 32 -44 0 -4 14 -24
31 -44 17 -19 39 -50 48 -68 28 -53 45 -80 69 -110 12 -16 22 -37 22 -47 0 -9
6 -23 14 -29 8 -7 17 -28 21 -49 8 -44 32 -92 45 -92 6 0 10 -7 10 -15 0 -19
52 -115 130 -239 33 -54 67 -114 75 -132 8 -19 21 -37 29 -40 9 -3 14 -10 11
-14 -3 -5 1 -15 9 -22 7 -8 16 -23 20 -35 4 -12 16 -33 27 -47 16 -21 29 -26
64 -26 51 0 69 19 81 85 3 22 12 47 18 55 7 8 18 33 25 55 8 22 25 54 38 70
13 17 58 71 99 122 44 55 74 102 74 115 0 14 10 29 24 38 32 20 104 112 112
144 3 14 15 28 25 31 11 4 26 20 34 36 9 16 40 55 70 87 30 31 55 60 55 64 0
5 8 16 18 26 11 11 41 60 67 110 32 60 58 95 74 102 16 7 62 11 116 9 50 -1
109 -2 132 -1 23 1 44 -2 47 -7 5 -7 -27 -55 -54 -81 -3 -3 -13 -21 -22 -41
-9 -20 -30 -52 -47 -72 -17 -19 -31 -40 -31 -46 0 -6 -34 -45 -75 -88 -41 -42
-75 -82 -75 -90 0 -7 -4 -13 -10 -13 -5 0 -26 -25 -46 -55 -20 -30 -41 -55
-45 -55 -5 0 -9 -8 -9 -17 0 -28 -42 -105 -72 -131 -16 -13 -28 -32 -28 -43 0
-11 -17 -38 -38 -62 -22 -23 -58 -80 -81 -126 -24 -48 -63 -108 -91 -137 -28
-29 -50 -58 -50 -64 0 -7 -12 -24 -27 -39 -16 -15 -50 -58 -78 -96 l-50 -70
-2 -515 c-1 -283 -2 -522 -2 -530 -1 -8 -1 -98 -1 -200 1 -102 -4 -216 -9
-255 -6 -38 -11 -91 -11 -116 0 -26 -6 -51 -13 -57 -8 -7 -63 -11 -140 -11
-155 1 -163 6 -151 83 4 28 9 215 12 416 6 548 11 698 27 805 2 17 7 74 11
127 l7 97 -31 31 c-17 16 -34 40 -37 51 -4 11 -26 49 -51 84 -24 36 -60 97
-80 137 -20 40 -55 99 -78 132 -22 32 -52 77 -65 100 -13 22 -34 57 -46 76
-13 19 -27 49 -31 65 -4 17 -17 44 -29 60 -13 17 -37 57 -55 90 -63 114 -209
335 -222 335 -4 0 -8 8 -8 19 0 10 -17 38 -38 62 -21 24 -44 53 -52 65 -8 12
-37 50 -63 85 -28 37 -47 72 -45 84 3 23 54 43 138 55 102 14 101 14 150 -46z"/>
<path d="M11377 7933 c-4 -3 -80 -7 -169 -8 -195 -3 -621 -21 -733 -30 -44 -4
-88 -11 -98 -17 -12 -6 -23 -6 -32 2 -7 6 -29 8 -53 4 -23 -4 -48 -1 -61 5
-37 20 -90 3 -108 -34 -15 -31 -14 -34 21 -97 31 -56 38 -80 47 -169 7 -57 10
-135 9 -174 -2 -38 -3 -79 -3 -90 12 -281 7 -540 -12 -681 -5 -37 -1 -83 15
-164 15 -77 20 -125 15 -154 -8 -46 -8 -47 -8 -211 1 -66 0 -145 0 -175 0 -30
1 -71 2 -90 1 -19 -1 -60 -4 -90 -3 -30 -8 -78 -9 -105 -2 -28 -9 -84 -17
-125 -18 -106 -18 -459 1 -495 12 -23 12 -27 -7 -40 -35 -25 -35 -63 1 -102
29 -32 36 -34 106 -38 124 -8 198 -23 258 -55 69 -36 95 -38 127 -5 31 30 32
62 4 115 -19 36 -20 48 -12 120 7 64 6 83 -4 92 -11 9 -11 14 2 28 11 13 15
42 15 123 0 58 5 118 10 133 14 37 27 253 22 359 -1 17 1 71 4 120 6 108 6
103 -2 187 -3 37 -3 79 0 93 l7 26 127 0 c70 0 142 -1 160 -1 19 0 43 6 54 15
19 12 23 12 32 0 9 -11 40 -14 141 -15 72 0 139 1 150 2 11 1 75 -2 141 -6
119 -7 122 -7 149 17 31 26 34 45 54 327 5 69 10 130 11 135 12 59 -19 93 -95
105 -33 5 -81 14 -106 19 -45 10 -438 14 -550 7 -31 -2 -81 -10 -112 -16 -71
-16 -125 -7 -132 23 -2 12 -9 81 -15 153 -6 72 -15 146 -21 165 -5 19 -12 66
-14 106 l-5 71 50 7 c49 7 166 14 305 20 39 2 113 8 165 13 52 6 173 14 268
18 157 6 174 5 192 -11 22 -20 77 -17 125 6 l28 14 4 160 c2 88 4 183 5 210 2
70 -16 165 -33 176 -8 4 -36 10 -64 13 -87 9 -342 16 -348 9z m-34 -125 c15
-8 69 -11 169 -9 140 3 147 2 158 -18 7 -13 7 -27 2 -38 -5 -10 -8 -64 -6
-120 3 -70 0 -104 -8 -109 -11 -7 -154 -18 -353 -28 -55 -3 -153 -12 -217 -20
-65 -9 -195 -18 -290 -21 -126 -4 -177 -10 -188 -20 -8 -7 -31 -15 -50 -17
-34 -3 -35 -4 -38 -51 -2 -27 4 -71 12 -99 8 -29 13 -55 10 -60 -3 -4 4 -25
15 -46 16 -31 20 -66 25 -188 11 -299 10 -291 30 -313 17 -18 30 -21 105 -20
86 0 121 5 241 33 39 9 87 13 120 10 30 -3 66 -1 80 4 18 7 33 6 55 -6 22 -11
49 -13 111 -9 47 3 98 1 121 -5 21 -6 61 -13 88 -17 42 -5 50 -10 47 -26 -1
-11 -7 -60 -12 -110 -15 -143 -18 -154 -43 -160 -84 -18 -777 -22 -837 -5 -60
17 -108 12 -134 -13 -22 -22 -22 -27 -14 -107 5 -47 15 -97 22 -111 9 -17 10
-32 4 -43 -5 -9 -6 -21 -3 -27 10 -15 6 -311 -5 -409 -5 -47 -11 -110 -14
-140 -2 -30 -9 -68 -16 -85 -18 -46 -23 -97 -12 -136 7 -27 6 -42 -5 -62 -10
-19 -11 -37 -5 -60 5 -17 5 -43 1 -57 -4 -14 -7 -49 -8 -78 l-1 -53 -62 7
c-35 4 -74 10 -88 14 -26 7 -25 4 -20 100 1 19 -1 107 -5 195 -5 111 -4 183 5
235 16 99 28 758 17 950 -9 143 -9 344 -2 363 4 10 4 79 -1 155 -7 119 -9 335
-4 435 2 37 -17 267 -26 312 l-6 30 114 1 c182 1 520 21 563 32 24 7 87 10
155 7 87 -4 121 -1 140 9 32 18 37 18 63 4z"/>
<path d="M360 7879 c-85 -16 -118 -65 -87 -126 12 -22 14 -64 11 -202 -3 -111
0 -187 7 -208 6 -20 10 -118 9 -260 -1 -126 0 -248 1 -273 4 -78 2 -330 -5
-450 -5 -100 -19 -620 -17 -675 0 -11 3 -149 5 -307 3 -158 10 -324 16 -370 5
-45 10 -109 10 -140 0 -46 6 -67 26 -99 l26 -41 51 8 c66 10 401 12 446 3 28
-6 40 -3 67 17 41 32 45 51 24 115 -22 66 -31 223 -35 569 -3 376 -13 663 -26
765 -6 50 -10 117 -8 150 5 90 1 348 -7 445 -7 86 -13 466 -10 660 3 216 1
316 -6 342 -15 52 -145 88 -250 68 -28 -6 -57 -6 -66 -1 -27 13 -133 19 -182
10z m330 -158 c5 -11 10 -38 10 -60 0 -22 5 -43 10 -46 6 -4 8 -10 5 -15 -6
-10 -6 -214 0 -485 4 -197 17 -369 30 -412 4 -13 4 -31 0 -40 -4 -10 -6 -47
-5 -83 3 -116 9 -505 13 -955 3 -242 7 -500 11 -573 4 -84 2 -141 -4 -153 -10
-17 -23 -19 -134 -19 -87 0 -127 4 -134 13 -9 10 -15 56 -37 272 -3 28 -5 67
-5 87 0 20 -4 39 -8 42 -5 3 -7 39 -4 81 3 50 1 80 -8 89 -9 11 -9 23 -1 48
11 35 28 222 22 248 -10 43 -17 322 -10 362 5 27 11 135 15 240 7 214 7 196 0
328 -9 155 -10 285 -3 297 16 26 4 289 -17 356 -11 39 -12 59 -4 100 6 29 11
104 12 167 l1 115 50 6 c28 3 80 7 117 7 57 2 69 -1 78 -17z"/>
<path d="M3270 7867 c-25 -4 -65 -6 -90 -3 -69 8 -188 -9 -211 -30 -15 -13
-22 -15 -31 -6 -16 16 -43 15 -57 -2 -7 -9 -13 -77 -17 -182 -8 -301 -12 -359
-22 -384 -9 -23 -8 -210 3 -626 2 -73 8 -142 15 -153 8 -15 10 -116 8 -339 -1
-174 1 -423 5 -552 5 -146 4 -265 -2 -315 -6 -44 -13 -119 -16 -167 -5 -87 -4
-88 26 -123 l31 -35 87 4 c48 2 103 11 125 20 21 9 44 16 50 16 7 0 17 5 23
11 9 9 22 6 54 -9 28 -14 47 -18 54 -12 8 6 25 3 50 -10 44 -23 89 -25 190 -8
39 6 84 10 100 9 17 0 48 5 70 13 22 8 78 17 125 19 86 6 105 10 215 53 58 23
101 37 195 64 25 8 52 19 60 25 22 16 89 45 104 45 7 0 21 9 32 21 10 12 42
33 69 46 28 14 66 39 87 54 20 16 51 36 70 43 28 12 74 53 130 115 7 7 37 39
66 70 60 64 85 98 138 191 20 36 50 84 65 107 29 44 63 130 106 268 23 74 25
97 26 290 2 210 -6 284 -36 355 -24 57 -47 133 -47 156 0 11 -20 58 -44 105
-24 46 -49 102 -55 125 -29 110 -303 425 -461 531 -94 63 -192 103 -253 103
-25 0 -58 5 -74 11 -15 6 -48 13 -73 15 -73 6 -103 11 -133 23 -16 6 -49 11
-75 11 -26 0 -63 5 -82 10 -19 6 -57 16 -85 22 -60 13 -452 17 -515 5z m424
-132 c32 -9 100 -20 151 -25 51 -5 98 -12 106 -15 8 -3 61 -11 119 -19 105
-13 284 -61 362 -96 23 -10 62 -36 86 -57 66 -55 272 -264 284 -288 6 -11 26
-38 43 -60 18 -22 37 -62 44 -89 10 -41 42 -111 80 -176 16 -28 30 -65 34 -95
3 -16 17 -61 32 -100 22 -54 30 -98 37 -195 10 -136 3 -296 -14 -339 -6 -14
-16 -39 -23 -56 -7 -16 -18 -48 -25 -70 -20 -62 -86 -182 -175 -320 -58 -88
-296 -315 -331 -315 -8 0 -23 -10 -123 -76 -67 -44 -164 -94 -184 -94 -10 0
-35 -9 -57 -20 -53 -27 -221 -80 -254 -80 -15 0 -42 -6 -60 -14 -19 -8 -74
-17 -122 -21 -49 -3 -117 -13 -152 -22 -55 -14 -75 -15 -161 -3 -61 8 -152 11
-242 8 l-145 -5 1 541 c0 298 -2 570 -5 606 -4 36 -4 76 0 90 3 14 3 45 -2 70
-7 38 -26 414 -30 585 -1 28 2 115 6 195 5 80 8 196 7 258 -2 111 20 258 42
273 17 12 281 31 355 26 43 -3 111 -2 152 2 41 4 82 9 90 10 9 0 42 -6 74 -14z"/>
<path d="M3142 7539 c-20 -18 -23 -27 -16 -53 7 -30 15 -105 14 -136 -1 -55
-12 -153 -20 -195 -11 -51 -14 -140 -14 -435 0 -105 11 -195 28 -228 14 -27
15 -53 5 -214 -5 -101 -15 -210 -21 -243 -7 -33 -13 -83 -14 -110 -1 -28 -4
-64 -8 -80 -3 -17 -9 -74 -11 -129 -3 -54 -10 -107 -15 -117 -6 -10 -10 -73
-10 -140 0 -112 2 -125 22 -146 11 -12 31 -46 42 -75 l21 -53 150 1 c83 1 173
6 200 13 28 7 77 16 110 21 33 5 92 22 130 38 39 16 95 35 125 42 82 18 247
68 318 96 34 13 71 24 81 24 10 0 30 9 44 20 14 11 29 20 34 20 5 0 35 14 65
30 37 20 94 70 167 145 120 125 167 188 226 305 20 41 46 87 56 101 10 14 20
36 23 50 3 13 15 65 27 114 19 80 21 107 15 235 -8 194 -29 288 -75 343 -8 10
-16 37 -17 60 -4 102 -154 314 -311 442 -77 63 -256 165 -291 165 -9 0 -26 7
-36 15 -11 8 -38 15 -60 15 -23 1 -59 7 -81 15 -22 8 -69 15 -105 15 -36 0
-95 7 -132 15 -55 11 -192 17 -348 13 -61 -1 -238 10 -265 16 -24 6 -35 3 -53
-15z m575 -149 c23 -6 82 -10 131 -10 54 0 103 -6 123 -14 19 -8 46 -12 60 -9
15 3 40 -2 57 -11 18 -9 55 -16 87 -16 48 0 57 -3 66 -22 6 -13 44 -42 85 -66
103 -61 210 -158 255 -231 10 -16 22 -32 28 -35 12 -8 48 -84 66 -143 7 -23
22 -54 33 -70 23 -32 52 -124 52 -164 0 -15 4 -30 9 -33 16 -10 20 -81 10
-186 -16 -171 -20 -193 -44 -225 -12 -16 -28 -50 -36 -75 -18 -57 -161 -276
-186 -284 -11 -3 -29 -20 -41 -36 -29 -39 -200 -180 -218 -180 -8 0 -41 -13
-72 -29 -32 -16 -76 -33 -98 -36 -21 -4 -43 -11 -49 -15 -5 -4 -27 -10 -47
-14 -20 -4 -57 -16 -82 -27 -25 -11 -71 -24 -103 -30 -75 -13 -154 -38 -173
-54 -8 -8 -62 -25 -120 -39 -84 -21 -112 -24 -140 -16 -19 6 -63 10 -97 10
l-61 0 -7 40 c-4 21 -4 48 0 59 6 21 17 198 14 241 -2 41 -1 53 9 95 6 22 15
114 21 204 7 90 14 168 18 174 3 5 7 86 10 181 3 139 1 186 -13 246 -10 41
-19 120 -21 175 -5 156 -3 307 4 319 4 6 9 79 12 162 3 84 10 156 14 160 4 5
29 11 55 14 69 8 340 1 389 -10z"/>
<path d="M4293 4428 c-32 -34 -44 -56 -54 -102 -14 -63 -13 -65 45 -101 18
-11 23 -97 17 -305 -3 -117 3 -267 14 -317 3 -12 0 -25 -5 -28 -8 -5 -9 -80
-4 -238 8 -275 9 -304 23 -382 9 -57 13 -93 25 -295 3 -47 8 -96 11 -110 4
-13 6 -73 6 -132 0 -59 3 -108 7 -108 4 0 8 -39 9 -88 2 -48 10 -116 19 -152
8 -36 16 -78 16 -95 1 -59 20 -191 33 -230 8 -22 17 -62 20 -90 7 -53 17 -78
45 -110 9 -11 23 -36 31 -55 7 -19 37 -58 66 -87 29 -28 53 -58 53 -66 0 -12
54 -47 73 -47 3 0 34 -19 69 -43 35 -24 75 -47 89 -50 14 -4 43 -20 64 -37 21
-16 47 -30 59 -30 11 0 32 -9 46 -20 14 -11 41 -20 62 -20 23 0 47 -8 65 -24
47 -39 65 -44 158 -46 154 -4 262 16 455 84 124 44 189 80 211 115 10 17 30
32 46 35 42 10 103 63 103 90 0 27 44 91 115 166 28 30 70 83 93 117 23 34 46
65 52 68 5 3 10 15 10 26 0 10 4 19 9 19 15 0 49 129 57 215 1 17 12 69 23
117 21 87 43 315 33 332 -3 5 -6 48 -7 95 -1 47 -7 120 -14 161 -6 41 -14 127
-17 190 -3 63 -7 149 -9 190 -2 47 4 122 17 200 12 69 22 177 24 240 1 63 9
151 19 195 9 44 16 107 15 140 -9 353 -16 441 -33 473 -10 17 -23 32 -30 33
-63 5 -145 4 -158 -2 -9 -5 -67 -11 -128 -14 -62 -3 -121 -10 -132 -16 -11 -6
-38 -7 -63 -4 -31 5 -52 2 -76 -10 l-33 -17 7 -146 c4 -81 9 -203 12 -272 2
-69 8 -183 14 -255 6 -78 7 -198 3 -300 -7 -145 -8 -236 -3 -365 0 -14 -4 -56
-10 -95 -5 -38 -14 -111 -19 -162 -5 -50 -12 -96 -15 -101 -3 -5 -7 -65 -10
-134 -3 -68 -9 -135 -14 -149 -5 -13 -15 -42 -22 -64 -7 -22 -24 -57 -37 -77
-12 -21 -23 -46 -23 -56 0 -10 -4 -22 -9 -28 -5 -5 -21 -47 -35 -93 -43 -137
-147 -271 -251 -323 -52 -26 -141 -41 -202 -35 -90 9 -194 66 -246 135 -63 83
-79 111 -99 182 -54 192 -116 623 -97 676 4 11 3 115 -2 230 -15 334 -17 488
-7 507 6 12 4 54 -7 125 -23 146 -27 312 -10 392 7 36 16 92 20 125 4 33 14
73 23 90 8 16 18 57 22 90 4 33 13 81 20 107 17 59 10 68 -79 110 -71 33 -116
42 -311 59 -79 7 -131 16 -141 25 -30 27 -72 17 -116 -28z m315 -145 c59 -5
81 -12 113 -35 23 -17 38 -35 36 -42 -3 -8 -8 -35 -11 -62 -9 -71 -26 -150
-47 -222 -16 -54 -18 -88 -14 -265 3 -111 9 -227 14 -257 5 -30 7 -84 4 -120
-3 -36 -5 -76 -4 -90 1 -14 4 -61 6 -105 5 -70 6 -151 5 -275 0 -19 2 -66 5
-105 3 -38 6 -142 8 -230 4 -166 18 -267 43 -322 9 -17 17 -53 18 -80 2 -26
11 -74 20 -106 9 -32 16 -69 16 -83 0 -30 62 -163 102 -218 15 -21 28 -44 28
-50 0 -6 14 -22 31 -36 18 -14 40 -33 50 -42 11 -10 27 -18 36 -18 9 0 26 -8
37 -18 12 -11 60 -29 109 -42 74 -19 102 -22 177 -17 60 5 104 14 130 27 21
11 47 20 57 20 10 0 34 13 53 28 19 16 45 34 58 41 28 15 123 129 148 179 10
20 34 61 53 90 22 33 36 66 37 90 0 20 4 46 9 57 24 68 50 125 71 163 14 23
22 47 19 52 -3 5 1 20 9 32 13 22 32 153 27 190 -1 9 3 19 9 23 5 3 10 39 10
80 0 41 4 96 10 122 24 116 33 270 30 508 0 33 0 175 -1 315 0 140 -4 305 -9
365 -13 162 -12 289 2 303 7 7 30 12 52 12 23 1 61 5 86 10 83 18 149 19 162
3 13 -16 15 -303 3 -418 -3 -33 -7 -91 -9 -130 -2 -38 -7 -91 -11 -118 -4 -26
-9 -69 -11 -95 -2 -26 -6 -60 -8 -77 -19 -120 -35 -307 -28 -319 10 -18 26
-182 22 -236 -2 -19 3 -80 9 -135 15 -124 12 -397 -4 -445 -7 -19 -15 -62 -19
-95 -10 -85 -47 -236 -63 -260 -7 -11 -13 -27 -13 -35 0 -9 -14 -29 -31 -46
-17 -16 -45 -49 -62 -74 -17 -25 -50 -63 -72 -85 -40 -40 -57 -54 -165 -145
-50 -43 -187 -113 -235 -122 -11 -2 -29 -17 -40 -35 -11 -17 -29 -33 -40 -36
-24 -6 -77 -25 -128 -45 -59 -24 -162 -18 -202 12 -20 16 -40 22 -56 19 -22
-4 -80 12 -188 52 -24 9 -67 31 -95 50 -28 18 -72 42 -97 53 -33 14 -60 38
-94 81 -26 34 -51 61 -55 61 -3 0 -17 19 -30 43 -12 23 -29 49 -36 57 -12 14
-22 59 -44 195 -4 28 -11 57 -14 65 -8 19 -35 218 -47 340 -5 52 -11 106 -15
120 -3 14 -10 97 -14 185 -5 88 -14 194 -20 235 -6 41 -13 111 -14 155 -2 44
-9 112 -15 151 -6 43 -9 182 -6 365 4 255 2 300 -12 337 -14 37 -14 49 -4 78
7 19 11 49 10 67 -1 17 1 69 5 114 5 52 4 107 -4 152 -15 89 -4 116 43 107 18
-4 65 -9 105 -13z"/>
<path d="M1510 4449 c-41 -15 -352 -91 -395 -96 -22 -3 -49 -12 -60 -19 -11
-8 -28 -14 -39 -14 -27 0 -144 -48 -186 -76 -19 -13 -40 -24 -46 -24 -6 0 -29
-16 -51 -35 -23 -19 -47 -35 -53 -35 -26 0 -200 -201 -200 -231 0 -16 -52
-122 -61 -127 -4 -2 -17 -31 -30 -65 -13 -34 -30 -70 -39 -79 -9 -10 -24 -44
-34 -75 -10 -32 -35 -94 -56 -138 -52 -111 -52 -114 -62 -460 -5 -156 21 -476
51 -630 6 -27 15 -75 20 -106 6 -31 22 -76 36 -100 14 -24 25 -51 25 -61 0 -9
4 -18 9 -20 5 -1 20 -25 34 -53 14 -27 46 -74 71 -103 25 -30 46 -60 46 -67 0
-8 14 -23 30 -35 17 -12 30 -30 30 -40 0 -25 102 -134 141 -150 16 -7 56 -38
87 -68 31 -30 71 -61 88 -68 18 -7 40 -24 50 -38 24 -30 137 -108 184 -126 19
-7 58 -23 85 -35 28 -13 84 -28 125 -34 41 -7 95 -17 120 -22 25 -6 97 -17
160 -26 93 -12 129 -13 187 -3 57 9 81 9 107 -1 27 -10 43 -10 74 -1 22 7 70
12 108 12 94 0 267 53 314 95 9 9 24 13 32 10 8 -3 28 1 44 10 16 8 34 15 40
15 6 0 21 11 34 25 13 14 28 25 33 25 5 0 49 25 99 55 49 30 93 55 96 55 4 0
19 11 34 25 15 14 30 25 33 25 8 0 40 29 93 85 26 27 73 74 104 105 33 33 66
76 78 105 12 28 27 57 35 65 7 8 16 26 20 40 4 14 19 41 34 60 60 80 80 127
87 201 4 35 15 80 25 99 9 19 30 87 46 150 28 114 28 117 26 399 -3 267 -4
287 -24 328 -12 24 -25 77 -30 118 -12 112 -28 164 -80 268 -10 21 -19 43 -19
50 0 7 -18 48 -40 92 -22 44 -40 85 -40 91 0 6 -11 20 -24 31 -13 11 -31 34
-41 50 -9 16 -40 42 -68 58 -29 16 -66 43 -82 59 -67 67 -142 127 -172 138
-18 7 -33 15 -33 19 0 4 -26 19 -57 35 -32 15 -60 31 -63 35 -9 13 -173 51
-196 45 -13 -4 -27 0 -34 8 -16 20 -232 86 -281 86 -14 0 -34 6 -45 14 -12 9
-55 16 -105 19 -46 2 -114 12 -151 21 -195 47 -232 52 -278 35z m195 -155 c28
-3 57 -12 65 -19 18 -15 66 -23 175 -30 48 -2 109 -14 154 -30 41 -14 83 -25
94 -25 11 0 36 -8 56 -19 49 -24 98 -42 146 -51 22 -4 51 -12 65 -18 14 -6 50
-18 81 -26 31 -9 62 -23 69 -31 7 -8 20 -15 29 -15 10 0 41 -18 71 -40 29 -22
63 -42 74 -46 12 -3 39 -25 62 -47 23 -23 71 -70 108 -105 36 -34 66 -65 66
-68 0 -2 20 -40 45 -84 25 -44 45 -89 45 -100 0 -11 9 -39 20 -61 35 -67 60
-161 60 -222 0 -39 7 -71 21 -99 18 -36 22 -62 24 -183 1 -77 8 -162 15 -189
10 -38 11 -59 2 -95 -7 -25 -18 -89 -26 -141 -8 -52 -23 -115 -35 -140 -17
-40 -32 -100 -48 -207 -5 -29 -35 -85 -152 -272 -23 -39 -72 -101 -108 -138
-36 -38 -72 -78 -80 -89 -7 -12 -42 -39 -76 -60 -34 -21 -67 -45 -73 -53 -6
-8 -18 -15 -26 -17 -7 -1 -37 -16 -65 -33 -27 -17 -54 -31 -58 -31 -4 0 -20
-10 -37 -21 -34 -25 -228 -112 -273 -123 -116 -29 -521 -42 -620 -20 -33 8
-89 14 -124 14 -87 0 -285 67 -356 120 -27 20 -63 46 -79 56 -16 10 -54 42
-85 71 -30 29 -64 56 -74 59 -41 13 -208 185 -265 272 -26 40 -62 93 -79 117
-18 24 -33 52 -33 62 0 10 -8 32 -18 48 -38 62 -71 187 -76 292 -3 56 -11 114
-16 129 -11 27 -34 276 -33 354 1 25 5 115 10 200 8 135 13 163 37 220 15 36
33 74 40 85 7 11 19 38 26 60 7 22 51 116 97 210 90 183 118 220 257 334 109
89 204 133 351 162 33 6 89 20 125 32 36 11 90 21 120 22 32 1 74 10 100 23
46 22 82 23 205 6z"/>
<path d="M1330 4073 c-36 -8 -74 -20 -85 -26 -76 -43 -125 -68 -155 -82 -19
-9 -44 -24 -55 -34 -11 -10 -40 -29 -63 -42 -24 -13 -50 -36 -58 -51 -8 -16
-21 -28 -29 -28 -8 0 -15 -4 -15 -10 0 -5 -10 -20 -22 -33 -47 -49 -78 -89
-78 -102 0 -7 -10 -27 -23 -46 -12 -19 -29 -50 -37 -69 -7 -19 -19 -42 -25
-50 -7 -8 -18 -33 -25 -55 -7 -22 -28 -68 -46 -101 -69 -129 -111 -259 -124
-380 -5 -49 -14 -120 -20 -158 -7 -40 -9 -90 -5 -115 4 -25 8 -68 10 -96 14
-264 58 -412 163 -549 71 -93 113 -151 134 -184 11 -17 31 -35 44 -38 13 -3
24 -11 24 -17 0 -6 34 -43 76 -84 74 -70 197 -143 242 -143 10 0 26 -6 37 -14
30 -20 169 -66 203 -66 16 0 46 -7 67 -15 75 -32 459 -35 516 -4 10 5 35 9 57
9 24 0 60 11 96 30 31 17 82 40 114 52 105 38 296 158 334 210 13 16 35 42 49
56 66 68 159 215 159 252 0 8 16 39 35 67 19 29 35 59 35 67 0 8 5 18 10 21
18 11 49 82 71 162 11 43 28 89 36 102 9 14 19 63 23 115 5 58 15 106 28 131
32 64 53 173 42 220 -5 22 -7 56 -4 75 12 81 -52 358 -94 404 -11 11 -29 40
-41 63 -11 23 -27 46 -34 50 -7 4 -26 25 -43 46 -16 21 -51 50 -79 66 -27 16
-72 48 -98 71 -27 24 -63 51 -80 60 -151 82 -185 97 -267 122 -19 5 -39 13
-45 17 -5 3 -55 14 -110 23 -55 9 -122 22 -150 27 -133 28 -227 43 -300 47
-44 2 -107 11 -140 18 -95 23 -183 26 -255 9z m66 -136 c51 -18 238 -36 386
-37 20 0 76 -14 124 -30 48 -17 107 -30 130 -30 24 0 46 -4 49 -10 3 -5 18
-10 33 -10 39 0 213 -39 242 -55 14 -7 43 -16 65 -20 22 -4 54 -20 70 -35 17
-15 35 -29 40 -31 21 -8 235 -172 235 -180 0 -4 21 -34 46 -65 67 -82 96 -173
115 -354 11 -111 0 -207 -37 -318 -13 -40 -24 -93 -24 -118 0 -25 -9 -62 -20
-84 -11 -22 -20 -50 -20 -63 0 -28 -137 -307 -151 -307 -5 0 -9 -8 -9 -17 0
-10 -11 -36 -25 -58 -13 -22 -25 -46 -25 -53 0 -34 -193 -242 -224 -242 -7 0
-19 -7 -26 -15 -13 -16 -144 -89 -181 -100 -13 -5 -55 -23 -94 -41 -49 -23
-95 -36 -155 -44 -47 -5 -106 -14 -132 -18 -51 -9 -133 -1 -241 25 -37 8 -83
13 -103 10 -24 -4 -58 2 -107 19 -40 14 -102 36 -138 48 -45 15 -85 38 -130
75 -35 30 -82 65 -105 79 -22 14 -53 43 -67 66 -15 23 -41 55 -59 73 -18 17
-44 50 -58 73 -14 23 -43 63 -65 89 -29 34 -46 68 -63 126 -13 44 -28 94 -34
110 -11 31 -31 257 -32 355 0 57 24 233 45 330 10 48 140 330 167 363 6 7 16
32 23 57 8 25 29 60 50 81 20 20 45 50 55 67 27 48 186 180 235 198 24 8 53
23 64 34 30 28 89 68 101 69 6 1 29 -5 50 -12z"/>
<path d="M9902 4353 c-45 -9 -55 -43 -48 -160 5 -65 13 -115 22 -127 9 -13 12
-33 8 -58 -4 -20 -3 -45 1 -55 4 -10 8 -67 9 -128 1 -60 5 -116 9 -122 11 -17
97 -16 172 2 33 8 88 15 122 15 34 0 74 5 90 11 15 6 71 12 123 14 52 1 125 6
162 10 l66 8 7 -67 c7 -64 2 -205 -11 -294 -4 -25 -1 -55 6 -72 6 -16 13 -84
15 -152 2 -68 9 -159 15 -203 12 -87 23 -309 24 -500 1 -66 5 -125 9 -132 6
-10 21 -391 19 -478 -1 -11 -3 -67 -5 -125 -2 -58 -6 -163 -8 -235 -4 -121 -6
-133 -32 -177 -15 -27 -25 -48 -22 -48 3 0 -1 -13 -9 -29 -21 -40 -2 -120 34
-138 26 -13 100 -10 195 8 166 30 342 29 423 -2 24 -9 79 11 94 35 13 19 9 83
-6 95 -8 7 -14 35 -15 75 -1 35 -10 91 -21 124 -16 49 -18 70 -11 104 5 24 9
81 7 128 -1 47 1 92 6 101 10 23 9 302 -3 429 -1 8 0 26 1 40 1 14 -2 90 -8
170 -6 80 -8 158 -5 173 3 15 -2 48 -12 73 -10 25 -19 65 -21 87 -2 23 -6 80
-9 127 -4 47 -13 104 -22 126 -11 33 -12 50 -4 80 15 55 14 124 -4 174 -15 42
-35 288 -34 422 0 65 1 68 27 75 15 5 101 6 192 5 91 -2 203 -5 250 -5 l85 -2
-2 50 c-2 28 -6 144 -10 258 l-8 209 -29 25 c-29 25 -32 25 -115 17 -125 -13
-405 -4 -573 17 -86 11 -100 10 -122 -4 -15 -10 -27 -13 -31 -7 -3 5 -20 10
-38 10 -18 0 -59 3 -92 6 -33 3 -114 -1 -180 -10 -90 -11 -133 -12 -169 -4
-34 7 -60 7 -85 0 -25 -8 -58 -8 -106 -1 -38 5 -82 7 -97 3 -16 -3 -49 1 -76
9 -55 18 -117 26 -150 20z m1180 -163 c44 -5 87 -6 100 -1 13 4 32 5 42 1 11
-3 38 -3 60 1 32 6 45 3 64 -12 21 -16 42 -19 133 -19 131 0 129 2 128 -134
l-1 -96 -36 -2 c-20 -1 -62 -3 -92 -5 -195 -8 -428 -32 -435 -44 -3 -5 -1 -37
6 -71 7 -35 13 -88 14 -118 7 -202 17 -340 27 -370 5 -19 17 -100 24 -180 8
-80 16 -161 19 -180 2 -19 11 -114 20 -210 9 -96 20 -218 25 -270 12 -118 23
-303 22 -350 0 -19 -2 -107 -4 -195 -2 -88 -6 -164 -9 -170 -8 -15 -4 -300 5
-386 l9 -76 -34 -5 c-19 -3 -42 -1 -52 4 -12 6 -43 4 -91 -6 -92 -19 -145 -12
-147 18 -1 11 -1 199 0 416 1 217 -3 472 -9 565 -6 94 -15 274 -20 400 -5 127
-14 255 -20 285 -6 30 -13 199 -15 375 -3 176 -10 333 -15 349 -6 16 -10 56
-10 90 0 70 -4 77 -47 100 -26 13 -54 15 -165 11 -73 -3 -160 -10 -193 -15
-33 -5 -114 -14 -180 -20 -66 -5 -129 -11 -140 -12 -17 -3 -20 3 -21 44 -1 53
-12 172 -21 237 l-6 44 223 -6 c141 -4 232 -2 249 4 14 6 124 12 243 13 119 1
220 5 224 9 4 4 16 5 28 2 12 -2 56 -9 98 -15z"/>
<path d="M8310 4323 c-57 -5 -121 -23 -180 -50 -73 -33 -185 -119 -212 -163
-40 -63 -78 -134 -117 -215 -58 -122 -61 -236 -11 -401 9 -30 9 -46 1 -61 -12
-24 12 -158 33 -183 7 -8 22 -37 32 -65 10 -27 28 -65 41 -83 12 -18 27 -50
34 -70 6 -20 25 -52 40 -70 16 -18 30 -38 30 -45 2 -13 183 -187 238 -227 18
-14 41 -34 51 -45 68 -77 98 -116 104 -138 3 -15 15 -27 30 -31 15 -4 28 -17
35 -38 6 -18 35 -56 64 -84 75 -73 104 -118 118 -182 9 -43 9 -68 0 -100 -6
-23 -11 -53 -11 -65 0 -38 -46 -121 -88 -159 -75 -67 -221 -105 -346 -87 -158
21 -158 21 -286 138 -69 62 -115 130 -124 184 -4 20 -21 53 -38 72 -37 43 -79
47 -117 11 -27 -25 -111 -74 -218 -126 -34 -16 -67 -39 -74 -51 -17 -32 -4
-85 36 -150 19 -31 35 -68 35 -82 0 -14 18 -53 40 -86 22 -33 40 -63 40 -66 0
-8 21 -33 45 -53 10 -9 33 -32 50 -50 17 -17 41 -32 53 -32 15 0 24 -8 28 -25
3 -14 14 -25 23 -25 9 0 25 -7 35 -15 11 -8 26 -15 35 -15 8 0 45 -22 83 -50
46 -34 78 -50 99 -50 16 0 44 -7 60 -16 49 -25 165 -46 279 -50 209 -8 279
-12 287 -17 18 -11 168 15 217 37 28 13 56 25 63 27 16 5 223 225 223 237 0 5
7 15 15 22 8 7 12 16 10 21 -3 4 3 13 14 18 21 12 51 79 51 114 0 13 5 28 11
34 6 6 12 24 14 39 2 16 7 47 11 69 18 96 3 347 -24 408 -11 25 -23 60 -27 78
-7 35 -28 89 -47 124 -7 11 -22 40 -34 65 -41 85 -325 344 -424 387 -14 6 -32
23 -40 39 -15 32 -39 55 -84 84 -46 29 -224 207 -241 240 -9 16 -19 30 -24 30
-15 0 -72 91 -91 146 -25 73 -25 131 1 230 14 54 29 89 49 109 15 17 31 39 34
50 7 23 40 41 111 60 74 19 244 7 282 -21 15 -11 35 -23 44 -26 9 -4 30 -24
45 -44 16 -21 46 -56 66 -77 48 -49 88 -119 88 -151 0 -28 18 -41 71 -51 32
-6 39 -3 62 24 14 17 31 46 37 66 6 19 16 35 21 35 5 0 26 26 47 58 20 31 47
68 60 82 51 55 60 66 80 103 27 46 28 89 5 109 -25 21 -151 78 -173 78 -10 0
-34 18 -54 40 -20 22 -45 40 -55 40 -11 0 -23 5 -26 10 -12 20 -110 70 -136
70 -15 0 -32 6 -38 14 -7 8 -27 18 -44 22 -18 3 -44 15 -59 25 -19 14 -44 19
-95 19 -37 0 -86 7 -108 15 -38 13 -88 16 -165 8z m172 -168 c171 -31 195 -35
221 -35 15 0 30 -6 33 -14 3 -8 23 -17 45 -21 29 -5 39 -12 39 -25 0 -26 48
-80 71 -80 25 0 157 -46 175 -61 20 -17 18 -25 -19 -66 -18 -21 -41 -50 -50
-65 -10 -16 -23 -28 -29 -28 -12 0 -118 106 -118 118 0 19 -71 80 -113 98 -26
10 -47 22 -47 27 0 4 -7 7 -15 7 -9 0 -30 8 -48 17 -27 14 -56 16 -177 14
-141 -3 -147 -4 -205 -34 -67 -35 -173 -138 -182 -177 -3 -14 -12 -33 -21 -42
-8 -10 -12 -26 -10 -36 3 -11 -2 -23 -12 -30 -17 -10 -21 -32 -36 -178 -8 -72
15 -163 52 -207 13 -16 24 -35 24 -43 0 -8 16 -22 35 -31 22 -10 35 -24 35
-36 0 -10 16 -47 35 -81 24 -44 46 -69 76 -86 24 -14 55 -38 71 -55 15 -16 31
-33 35 -37 5 -3 26 -23 48 -44 22 -20 56 -47 75 -59 19 -12 53 -43 75 -69 22
-25 43 -46 47 -46 4 0 28 -16 54 -35 25 -19 51 -35 57 -36 7 0 41 -34 77 -75
36 -41 80 -84 98 -95 17 -11 32 -25 32 -31 0 -12 66 -114 79 -122 5 -3 12 -22
16 -43 4 -20 18 -60 33 -87 25 -50 26 -55 23 -230 -2 -172 -3 -182 -30 -245
-15 -36 -34 -82 -41 -101 -17 -45 -201 -229 -255 -255 -58 -27 -164 -54 -171
-43 -3 5 -36 8 -72 7 -119 -3 -215 3 -247 16 -16 7 -61 16 -100 20 -38 4 -81
13 -95 20 -14 7 -41 16 -60 20 -19 4 -61 23 -93 41 -32 19 -64 34 -72 34 -8 0
-19 9 -25 20 -6 11 -16 20 -23 20 -8 0 -48 32 -91 72 -69 63 -84 84 -122 166
-24 52 -44 102 -44 112 0 25 28 46 92 68 62 22 71 19 83 -30 4 -14 25 -43 47
-65 22 -21 53 -56 69 -78 31 -42 139 -123 198 -151 49 -22 239 -57 281 -50 19
3 62 9 96 14 88 14 127 29 159 62 16 17 37 30 46 30 27 0 146 136 152 174 2
17 17 63 31 101 47 124 33 250 -42 392 -18 33 -108 133 -121 133 -3 0 -15 15
-26 33 -10 17 -48 66 -85 107 -36 41 -75 87 -87 102 -20 27 -179 177 -252 238
-23 19 -53 55 -65 80 -13 25 -37 70 -53 101 -71 134 -97 222 -114 374 -5 50
-11 101 -12 115 -2 14 -7 37 -11 51 -6 20 0 45 23 97 17 39 31 75 31 81 0 10
14 32 95 143 47 65 214 143 312 147 18 0 70 -6 115 -14z"/>
</g>
</svg>
